<svg id="visual" viewBox="0 0 1920 1080" width="1920" height="1080" xmlns="http://www.w3.org/2000/svg" xmlns:xlink="http://www.w3.org/1999/xlink" version="1.1"><rect x="0" y="0" width="1920" height="1080" fill="#001220"></rect><path d="M0 700L45.7 689.8C91.3 679.7 182.7 659.3 274.2 661.5C365.7 663.7 457.3 688.3 548.8 700C640.3 711.7 731.7 710.3 823 719.2C914.3 728 1005.7 747 1097 742.8C1188.3 738.7 1279.7 711.3 1371.2 708C1462.7 704.7 1554.3 725.3 1645.8 723.8C1737.3 722.3 1828.7 698.7 1874.3 686.8L1920 675L1920 1081L1874.3 1081C1828.7 1081 1737.3 1081 1645.8 1081C1554.3 1081 1462.7 1081 1371.2 1081C1279.7 1081 1188.3 1081 1097 1081C1005.7 1081 914.3 1081 823 1081C731.7 1081 640.3 1081 548.8 1081C457.3 1081 365.7 1081 274.2 1081C182.7 1081 91.3 1081 45.7 1081L0 1081Z" fill="#c62368"></path><path d="M0 726L45.7 730.3C91.3 734.7 182.7 743.3 274.2 766C365.7 788.7 457.3 825.3 548.8 830C640.3 834.7 731.7 807.3 823 789.5C914.3 771.7 1005.7 763.3 1097 764.3C1188.3 765.3 1279.7 775.7 1371.2 772.5C1462.7 769.3 1554.3 752.7 1645.8 750.8C1737.3 749 1828.7 762 1874.3 768.5L1920 775L1920 1081L1874.3 1081C1828.7 1081 1737.3 1081 1645.8 1081C1554.3 1081 1462.7 1081 1371.2 1081C1279.7 1081 1188.3 1081 1097 1081C1005.7 1081 914.3 1081 823 1081C731.7 1081 640.3 1081 548.8 1081C457.3 1081 365.7 1081 274.2 1081C182.7 1081 91.3 1081 45.7 1081L0 1081Z" fill="#d53867"></path><path d="M0 811L45.7 824C91.3 837 182.7 863 274.2 869C365.7 875 457.3 861 548.8 849.5C640.3 838 731.7 829 823 821.8C914.3 814.7 1005.7 809.3 1097 824.5C1188.3 839.7 1279.7 875.3 1371.2 885.5C1462.7 895.7 1554.3 880.3 1645.8 861.2C1737.3 842 1828.7 819 1874.3 807.5L1920 796L1920 1081L1874.3 1081C1828.7 1081 1737.3 1081 1645.8 1081C1554.3 1081 1462.7 1081 1371.2 1081C1279.7 1081 1188.3 1081 1097 1081C1005.7 1081 914.3 1081 823 1081C731.7 1081 640.3 1081 548.8 1081C457.3 1081 365.7 1081 274.2 1081C182.7 1081 91.3 1081 45.7 1081L0 1081Z" fill="#e34c67"></path><path d="M0 942L45.7 934.2C91.3 926.3 182.7 910.7 274.2 913.8C365.7 917 457.3 939 548.8 951.2C640.3 963.3 731.7 965.7 823 952.3C914.3 939 1005.7 910 1097 894.2C1188.3 878.3 1279.7 875.7 1371.2 873.5C1462.7 871.3 1554.3 869.7 1645.8 878.2C1737.3 886.7 1828.7 905.3 1874.3 914.7L1920 924L1920 1081L1874.3 1081C1828.7 1081 1737.3 1081 1645.8 1081C1554.3 1081 1462.7 1081 1371.2 1081C1279.7 1081 1188.3 1081 1097 1081C1005.7 1081 914.3 1081 823 1081C731.7 1081 640.3 1081 548.8 1081C457.3 1081 365.7 1081 274.2 1081C182.7 1081 91.3 1081 45.7 1081L0 1081Z" fill="#ef5f67"></path><path d="M0 994L45.7 986.5C91.3 979 182.7 964 274.2 960.8C365.7 957.7 457.3 966.3 548.8 977.8C640.3 989.3 731.7 1003.7 823 1002.7C914.3 1001.7 1005.7 985.3 1097 976.2C1188.3 967 1279.7 965 1371.2 971.5C1462.7 978 1554.3 993 1645.8 1003.3C1737.3 1013.7 1828.7 1019.3 1874.3 1022.2L1920 1025L1920 1081L1874.3 1081C1828.7 1081 1737.3 1081 1645.8 1081C1554.3 1081 1462.7 1081 1371.2 1081C1279.7 1081 1188.3 1081 1097 1081C1005.7 1081 914.3 1081 823 1081C731.7 1081 640.3 1081 548.8 1081C457.3 1081 365.7 1081 274.2 1081C182.7 1081 91.3 1081 45.7 1081L0 1081Z" fill="#fa7268"></path></svg>